<svg xmlns="http://www.w3.org/2000/svg" viewBox="0 0 400 400" xml:space="preserve"><path fill="#E535AB" d="m57.47 302.67-14.37-8.3L203.25 16.98l14.37 8.3z"/><path fill="#E535AB" d="M39.8 272.2h320.3v16.6H39.8z"/><path fill="#E535AB" d="m206.34 374.01-160.22-92.5 8.3-14.37 160.22 92.5zm139.19-241.06L185.3 40.45l8.3-14.38 160.22 92.5z"/><path fill="#E535AB" d="m54.48 132.88-8.3-14.38L206.39 26l8.3 14.38z"/><path fill="#E535AB" d="M342.58 302.67 182.43 25.28l14.38-8.3 160.15 277.4zM52.5 107.5h16.6v185H52.5z"/><path fill="#E535AB" d="M330.9 107.5h16.6v185h-16.6z"/><path fill="#E535AB" d="m203.53 367.01-7.25-12.56L335.62 274l7.25 12.56z"/><path fill="#E535AB" d="M369.5 297.9c-9.6 16.7-31 22.4-47.7 12.8s-22.4-31-12.8-47.7 31-22.4 47.7-12.8a34.8 34.8 0 0 1 12.8 47.7M90.9 137c-9.6 16.7-31 22.4-47.7 12.8s-22.4-31-12.8-47.7 31-22.4 47.7-12.8c16.7 9.7 22.4 31 12.8 47.7M30.5 297.9c-9.6-16.7-3.9-38 12.8-47.7 16.7-9.6 38-3.9 47.7 12.8 9.6 16.7 3.9 38-12.8 47.7a34.93 34.93 0 0 1-47.7-12.8M309.1 137c-9.6-16.7-3.9-38 12.8-47.7 16.7-9.6 38-3.9 47.7 12.8 9.6 16.7 3.9 38-12.8 47.7a34.95 34.95 0 0 1-47.7-12.8M200 395.8c-19.3 0-34.9-15.6-34.9-34.9S180.7 326 200 326s34.9 15.6 34.9 34.9c0 19.2-15.6 34.9-34.9 34.9M200 74c-19.3 0-34.9-15.6-34.9-34.9S180.7 4.2 200 4.2s34.9 15.6 34.9 34.9S219.3 74 200 74"/></svg>